<svg width="34" height="33" viewBox="0 0 34 33" fill="none" xmlns="http://www.w3.org/2000/svg">
<path d="M14.8696 1.38196C15.4683 -0.460661 18.0751 -0.460657 18.6738 1.38196L21.262 9.34752C21.5298 10.1716 22.2977 10.7295 23.1641 10.7295H31.5396C33.4771 10.7295 34.2826 13.2087 32.7152 14.3475L25.9393 19.2705C25.2383 19.7798 24.945 20.6825 25.2127 21.5066L27.8009 29.4721C28.3996 31.3148 26.2906 32.847 24.7232 31.7082L17.9473 26.7852C17.2463 26.2759 16.2971 26.2759 15.5962 26.7852L8.82025 31.7082C7.25282 32.847 5.14386 31.3148 5.74257 29.4721L8.33073 21.5066C8.59848 20.6825 8.30516 19.7798 7.60419 19.2705L0.828277 14.3475C-0.73915 13.2087 0.0664054 10.7295 2.00385 10.7295H10.3793C11.2458 10.7295 12.0137 10.1716 12.2814 9.34752L14.8696 1.38196Z" fill="black"/>
</svg>
